<svg id="Layer_1" data-name="Layer 1" xmlns="http://www.w3.org/2000/svg" xmlns:xlink="http://www.w3.org/1999/xlink" viewBox="0 0 248.04 215.53"><defs><style>.cls-1{fill:#bde8f5;}.cls-2{fill:#4988c4;}.cls-3{fill:url(#linear-gradient);}.cls-4{fill:#1c4d8d;}.cls-5{fill:#0f2854;}.cls-6{fill:#0f1743;}</style><linearGradient id="linear-gradient" x1="35.66" y1="191.74" x2="201.14" y2="104.59" gradientUnits="userSpaceOnUse"><stop offset="0.09" stop-color="#dda853"/><stop offset="0.91" stop-color="#4300ff"/></linearGradient></defs><polygon class="cls-1" points="162.91 22.5 162.91 22.51 124.02 45.02 85.15 22.52 85.15 22.48 124.02 0 162.91 22.5"/><polygon class="cls-2" points="162.91 22.51 162.91 49.35 147.21 58.44 124.02 45.02 162.91 22.51"/><polygon class="cls-2" points="124.02 45.02 100.77 58.47 85.15 49.43 85.15 22.52 124.02 45.02"/><polygon class="cls-3" points="123.95 143.37 123.95 215.49 62.06 179.67 62.06 107.59 62.09 107.58 62.2 107.64 85.15 120.92 123.95 143.37"/><polygon class="cls-4" points="185.85 107.64 185.85 179.75 124.02 215.53 123.95 215.49 123.95 143.37 124.02 143.41 162.91 120.9 185.81 107.66 185.85 107.64"/><polygon class="cls-4" points="248.04 71.75 209.13 94.28 185.85 80.79 162.91 67.53 147.21 58.44 162.91 49.35 162.91 22.51 248.04 71.75"/><polygon class="cls-5" points="209.13 94.28 185.9 107.71 185.85 107.69 185.81 107.66 162.91 94.43 123.97 71.89 147.21 58.44 162.91 67.53 185.85 80.79 209.13 94.28"/><polygon class="cls-6" points="185.81 107.66 162.91 120.9 124.02 143.41 85.15 120.92 62.2 107.64 85.15 94.34 123.97 71.89 162.91 94.43 185.81 107.66"/><polygon class="cls-6" points="147.21 58.44 123.97 71.89 100.77 58.47 124.02 45.02 147.21 58.44"/><polygon class="cls-5" points="123.97 71.89 85.15 94.34 62.2 107.64 62.09 107.69 62.06 107.66 38.91 94.28 62.06 80.88 85.15 67.5 100.77 58.47 123.97 71.89"/><polygon class="cls-4" points="100.77 58.47 85.15 67.5 62.06 80.88 38.91 94.28 38.9 94.28 0 71.75 85.12 22.51 85.15 22.52 85.15 49.43 100.77 58.47"/></svg>